<svg xmlns="http://www.w3.org/2000/svg" width="32" height="32" viewBox="0 0 32 32">
  <rect width="32" height="32" rx="6" fill="#378ADD"/>
  <path fill="#FFF" fill-rule="evenodd" d="M10.75 8.5c-2.071 0-3.75 1.679-3.75 3.75s1.679 3.75 3.75 3.75c.996 0 1.902-.388 2.574-1.021l.847-.847.012-.012.847.847c.672.633 1.578 1.021 2.574 1.021 2.07 0 3.75-1.679 3.75-3.75s-1.68-3.75-3.75-3.75c-.999 0-1.904.387-2.574 1.021l-.847.847-.007.006-.84-.841-.012-.01A3.737 3.737 0 0 0 10.75 8.5Z" clip-rule="evenodd"/>
</svg>
